#!OML:ASF H:\ManfredETheater\Project 1\Capture day 1\Session 1\subject.ASF
:FULLY-SPECIFIED
:DEGREES
334
root 1.59818 17.8611 -29.0086 -170.636 -1.07771 -179.005
lowerback 4.55783 -0.0994233 1.20255
upperback -4.18404 -0.0591237 2.33569
thorax -6.92405 -0.0938878 1.78277
lowerneck -19.4613 -3.03426 -3.02753
upperneck 19.1575 -3.30594 0.888832
head 9.31551 -1.58854 0.367417
rclavicle -3.50358e-015 -1.59028e-014
rhumerus -38.721 -8.1248 -79.9016
rradius 38.0709
rwrist -0.785887
rhand -20.7654 -11.601
rfingers 7.12502
rthumb 5.6009 -41.507
lclavicle -3.50358e-015 -1.59028e-014
lhumerus -38.2304 6.74585 86.9538
lradius 34.8417
lwrist -12.2181
lhand -4.1746 6.50418
lfingers 7.12502
lthumb 21.5863 35.3211
rfemur -11.4485 -0.877671 20.8388
rtibia 28.7539
rfoot -19.5307 -13.2752
rtoes -30.455
lfemur -18.0442 -5.30521 -18.9724
ltibia 38.5525
lfoot -26.3431 0.023088
ltoes 9.44149
335
root 1.58579 17.853 -29.0644 -170.424 -1.1546 -179.041
lowerback 4.55046 -0.105638 1.20647
upperback -4.18736 -0.0673038 2.34382
thorax -6.92316 -0.0981166 1.78996
lowerneck -19.4121 -3.04675 -3.05111
upperneck 19.1023 -3.31521 0.875361
head 9.28785 -1.59691 0.366157
rclavicle 1.09332e-015 2.62396e-014
rhumerus -38.7732 -7.98576 -80.0404
rradius 38.2723
rwrist -0.912102
rhand -20.7549 -11.5911
rfingers 7.12502
rthumb 5.61096 -41.4968
lclavicle 1.09332e-015 2.62396e-014
lhumerus -38.2472 6.64295 86.9484
lradius 34.8578
lwrist -12.2276
lhand -4.17712 6.51382
lfingers 7.12502
lthumb 21.5839 35.331
rfemur -11.4683 -0.901816 20.7814
rtibia 28.7668
rfoot -19.6809 -13.4597
rtoes -30.6873
lfemur -18.0737 -5.34244 -19.0429
ltibia 38.5548
lfoot -26.5261 0.0382505
ltoes 9.38312
336
root 1.5733 17.8444 -29.1214 -170.207 -1.22839 -179.072
lowerback 4.54114 -0.108183 1.21552
upperback -4.19537 -0.0704828 2.35239
thorax -6.92626 -0.100294 1.79428
lowerneck -19.3479 -3.06198 -3.07756
upperneck 19.0431 -3.32829 0.864591
head 9.25634 -1.60688 0.366022
rclavicle -1.59028e-015 3.97569e-015
rhumerus -38.8439 -7.83883 -80.1843
rradius 38.4971
rwrist -1.04391
rhand -20.7498 -11.574
rfingers 7.12502
rthumb 5.61593 -41.4796
lclavicle -1.59028e-015 3.97569e-015
lhumerus -38.2716 6.53867 86.9387
lradius 34.8778
lwrist -12.2263
lhand -4.18813 6.52459
lfingers 7.12502
lthumb 21.5733 35.343
rfemur -11.4926 -0.921905 20.7299
rtibia 28.7818
rfoot -19.8332 -13.6458
rtoes -30.9146
lfemur -18.1061 -5.37871 -19.1076
ltibia 38.5576
lfoot -26.7114 0.0544502
ltoes 9.33172
337
root 1.56048 17.8353 -29.1801 -169.983 -1.29984 -179.104
lowerback 4.52706 -0.112074 1.2222
upperback -4.19797 -0.0756241 2.36064
thorax -6.92078 -0.103208 1.79964
lowerneck -19.3089 -2.83985 -3.18117
upperneck 18.9854 -3.40914 0.914932
head 9.23184 -1.8025 0.365024
rclavicle 5.91384e-015 2.14687e-014
rhumerus -38.9019 -7.67964 -80.3416
rradius 38.7331
rwrist -1.18011
rhand -20.75 -11.5444
rfingers 7.12502
rthumb 5.61576 -41.45
lclavicle 5.91384e-015 2.14687e-014
lhumerus -38.2873 6.44409 86.9225
lradius 34.9035
lwrist -12.21
lhand -4.22049 6.53093
lfingers 7.12502
lthumb 21.5422 35.3529
rfemur -11.5176 -0.953744 20.6748
rtibia 28.7983
rfoot -19.9905 -13.8253
rtoes -31.1594
lfemur -18.1377 -5.41347 -19.1756
ltibia 38.5603
lfoot -26.9013 0.0708545
ltoes 9.27957
338
root 1.5476 17.8258 -29.2401 -169.754 -1.36646 -179.14
lowerback 4.51273 -0.115818 1.22083
upperback -4.19511 -0.0809343 2.36775
thorax -6.90933 -0.105648 1.80822
lowerneck -19.2977 -2.85307 -3.19727
upperneck 18.9392 -3.41805 0.905046
head 9.21413 -1.80795 0.363633
rclavicle 4.72114e-015 1.59028e-015
rhumerus -38.945 -7.51078 -80.5121
rradius 38.9795
rwrist -1.32048
rhand -20.7542 -11.5097
rfingers 7.12502
rthumb 5.61171 -41.4154
lclavicle 4.72114e-015 1.59028e-015
lhumerus -38.2909 6.35343 86.9017
lradius 34.9346
lwrist -12.178
lhand -4.26033 6.5533
lfingers 7.12502
lthumb 21.504 35.3796
rfemur -11.5452 -0.984341 20.6149
rtibia 28.8161
rfoot -20.1512 -14.0059
rtoes -31.4116
lfemur -18.1696 -5.44596 -19.2482
ltibia 38.5623
lfoot -27.0938 0.086019
ltoes 9.23532
339
root 1.53454 17.8157 -29.3017 -169.522 -1.42768 -179.18
lowerback 4.49537 -0.118871 1.21268
upperback -4.18776 -0.0857395 2.37449
thorax -6.89133 -0.107391 1.82004
lowerneck -19.2964 -2.86471 -3.20882
upperneck 18.892 -3.4254 0.895461
head 9.19773 -1.81209 0.361719
rclavicle -1.63997e-015 -1.27222e-014
rhumerus -38.9808 -7.33195 -80.6928
rradius 39.2403
rwrist -1.46882
rhand -20.759 -11.4839
rfingers 7.12502
rthumb 5.60703 -41.3897
lclavicle -1.63997e-015 -1.27222e-014
lhumerus -38.2877 6.26618 86.8779
lradius 34.9675
lwrist -12.1283
lhand -4.30986 6.58434
lfingers 7.12502
lthumb 21.4564 35.4161
rfemur -11.5714 -1.01632 20.5504
rtibia 28.8344
rfoot -20.3144 -14.1873
rtoes -31.6762
lfemur -18.1968 -5.47437 -19.3252
ltibia 38.5626
lfoot -27.291 0.100583
ltoes 9.18847
340
root 1.52119 17.8051 -29.3649 -169.288 -1.48564 -179.219
lowerback 4.476 -0.120586 1.20446
upperback -4.17727 -0.088737 2.38079
thorax -6.86887 -0.108188 1.83117
lowerneck -19.3009 -2.87741 -3.21982
upperneck 18.8435 -3.43441 0.888214
head 9.18198 -1.81654 0.360244
rclavicle 3.77691e-015 2.46493e-014
rhumerus -39.0114 -7.1479 -80.88
rradius 39.5109
rwrist -1.61991
rhand -20.7643 -11.4532
rfingers 7.12502
rthumb 5.60193 -41.3592
lclavicle 3.77691e-015 2.46493e-014
lhumerus -38.2804 6.17672 86.8537
lradius 35.003
lwrist -12.0607
lhand -4.37009 6.62363
lfingers 7.12502
lthumb 21.3985 35.462
rfemur -11.5951 -1.05394 20.4848
rtibia 28.8527
rfoot -20.4802 -14.3673
rtoes -31.9587
lfemur -18.2186 -5.50161 -19.4031
ltibia 38.5611
lfoot -27.493 0.115197
ltoes 9.14286
341
root 1.50738 17.7939 -29.4298 -169.053 -1.54431 -179.258
lowerback 4.45914 -0.121681 1.20066
upperback -4.1681 -0.0905671 2.38631
thorax -6.8493 -0.108672 1.83893
lowerneck -19.2974 -2.88956 -3.22658
upperneck 18.7898 -3.44351 0.878067
head 9.16287 -1.82109 0.357214
rclavicle -6.95746e-015 2.3059e-014
rhumerus -39.0431 -6.95872 -81.0708
rradius 39.789
rwrist -1.77371
rhand -20.7674 -11.4365
rfingers 7.12502
rthumb 5.59896 -41.3426
lclavicle -6.95746e-015 2.3059e-014
lhumerus -38.2797 6.08394 86.8294
lradius 35.0437
lwrist -11.9786
lhand -4.44576 6.66294
lfingers 7.12502
lthumb 21.3259 35.5095
rfemur -11.6121 -1.10543 20.4183
rtibia 28.8696
rfoot -20.651 -14.5415
rtoes -32.2491
lfemur -18.2334 -5.52958 -19.4818
ltibia 38.5582
lfoot -27.7014 0.127958
ltoes 9.09886
342
root 1.4933 17.7822 -29.4962 -168.819 -1.59726 -179.295
lowerback 4.44743 -0.118584 1.1988
upperback -4.16268 -0.0866011 2.39191
thorax -6.83686 -0.106475 1.84521
lowerneck -19.277 -2.90236 -3.23692
upperneck 18.731 -3.45361 0.868972
head 9.13911 -1.82646 0.355242
rclavicle -2.98177e-015 1.74931e-014
rhumerus -39.0819 -6.76642 -81.2613
rradius 40.0714
rwrist -1.92682
rhand -20.7701 -11.4274
rfingers 7.12502
rthumb 5.59633 -41.3335
lclavicle -2.98177e-015 1.74931e-014
lhumerus -38.2891 5.98562 86.8077
lradius 35.0873
lwrist -11.8835
lhand -4.53162 6.70158
lfingers 7.12502
lthumb 21.2434 35.5575
rfemur -11.6243 -1.15537 20.3526
rtibia 28.8851
rfoot -20.821 -14.7185
rtoes -32.5412
lfemur -18.2402 -5.55423 -19.5602
ltibia 38.5539
lfoot -27.9166 0.143818
ltoes 9.05009
343
root 1.47889 17.7698 -29.5643 -168.583 -1.64659 -179.331
lowerback 4.437 -0.112094 1.19917
upperback -4.16158 -0.0780703 2.39687
thorax -6.82985 -0.102257 1.84921
lowerneck -19.2355 -2.91595 -3.25086
upperneck 18.6651 -3.46523 0.861445
head 9.10925 -1.83286 0.354515
rclavicle -1.4561e-014 3.65764e-014
rhumerus -39.1285 -6.57099 -81.4507
rradius 40.3545
rwrist -2.07614
rhand -20.7724 -11.4226
rfingers 7.12502
rthumb 5.59408 -41.3288
lclavicle -1.4561e-014 3.65764e-014
lhumerus -38.3099 5.88297 86.7877
lradius 35.1323
lwrist -11.7828
lhand -4.62921 6.73533
lfingers 7.12502
lthumb 21.1496 35.6017
rfemur -11.6316 -1.20662 20.2867
rtibia 28.9009
rfoot -20.9913 -14.8987
rtoes -32.8337
lfemur -18.2397 -5.57907 -19.6398
ltibia 38.5486
lfoot -28.1385 0.164184
ltoes 9.00383
344
root 1.46408 17.7568 -29.6343 -168.346 -1.69447 -179.369
lowerback 4.42645 -0.105909 1.19854
upperback -4.15864 -0.0699605 2.4013
thorax -6.82082 -0.0981539 1.85322
lowerneck -19.1966 -2.92633 -3.25899
upperneck 18.5965 -3.4727 0.84916
head 9.07866 -1.83732 0.351777
rclavicle -5.46658e-016 -7.15625e-015
rhumerus -39.1686 -6.36907 -81.6432
rradius 40.6375
rwrist -2.21973
rhand -20.7772 -11.4126
rfingers 7.12502
rthumb 5.58947 -41.3189
lclavicle -5.46658e-016 -7.15625e-015
lhumerus -38.3311 5.78332 86.767
lradius 35.1802
lwrist -11.677
lhand -4.73631 6.76374
lfingers 7.12502
lthumb 21.0468 35.6416
rfemur -11.6338 -1.26244 20.2179
rtibia 28.9184
rfoot -21.1637 -15.0804
rtoes -33.1192
lfemur -18.2319 -5.60207 -19.7236
ltibia 38.543
lfoot -28.3701 0.187168
ltoes 8.95402
